HIERARCHY
ROOT Hips
{
	OFFSET 0.00000 0.00000 0.00000
	CHANNELS 6 Xposition Yposition Zposition Yrotation Zrotation Xrotation 
	JOINT Lumbar
	{
		OFFSET 0 0 0
		CHANNELS 3 Zrotation Xrotation Yrotation
		JOINT Neck
		{
			OFFSET 0.00 0.2701 0.00
			CHANNELS 3 Zrotation Xrotation Yrotation
			End Site
			{
				OFFSET 0.00 0.1379 0.00
			}
		}
		JOINT RightShoulder
		{
			OFFSET 0.0119 0.2289 0.1181
			CHANNELS 3 Zrotation Xrotation Yrotation
			JOINT RightElbow
			{
				OFFSET 0.00 -0.1475 0.00
				CHANNELS 2 Zrotation Yrotation
				JOINT RightWrist
				{
					OFFSET 0.00 -0.1605 0.00
					CHANNELS 2 Zrotation Xrotation
					End Site
					{
						OFFSET 0.0040 -0.1068 0.0006
					}
				}
			}
		}
		JOINT LeftShoulder
		{
			OFFSET 0.0119 0.2289 -0.1181
			CHANNELS 3 Zrotation Xrotation Yrotation
			JOINT LeftElbow
			{
				OFFSET 0.00 -0.1475 0.00
				CHANNELS 2 Zrotation Yrotation
				JOINT LeftWrist
				{
					OFFSET 0.00 -0.1605 0.00
					CHANNELS 2 Zrotation Xrotation
					End Site
					{
						OFFSET 0.0040 -0.1068 -0.0006
					}
				}
			}
		}
	}
	JOINT RightHip
	{
		OFFSET 0.0316 -0.0424 0.0458
		CHANNELS 3 Zrotation Xrotation Yrotation
		JOINT RightKnee
		{
			OFFSET 0.00 -0.2438 0.00
			CHANNELS 1 Zrotation
			JOINT RightAnkle
			{
				OFFSET 0.00 -0.2449 0.00
				CHANNELS 3 Zrotation Xrotation Yrotation
				End Site
				{
					OFFSET 0.1237 -0.0542 0.0051
				}
			}
		}
	}
	JOINT LeftHip
	{
		OFFSET 0.0316 -0.0424 -0.0458
		CHANNELS 3 Zrotation Xrotation Yrotation
		JOINT LeftKnee
		{
			OFFSET 0.00 -0.2438 0.00
			CHANNELS 1 Zrotation
			JOINT LeftAnkle
			{
				OFFSET 0.00 -0.2449 0.00
				CHANNELS 3 Zrotation Xrotation Yrotation
				End Site
				{
					OFFSET 0.1237 -0.0542 -0.0051
				}
			}
		}
	}
}
MOTION
Frames: 11
Frame Time: 0.02
-0 0.57926 0 155.74202 0 -4.81481 8.11462 5.65673 -1.65197 -34.84483 3.26734 -1.19628 30.59902 -17.40706 6.06515 11.25155 82.03067 1.23979 -3.38048 24.35291 11.42045 -3.17043 9.14814 -80.55672 -2.5065 0.72036 -6.06862 3.89825 -15.51131 -7.01866 -12.43851 -1.55206 -9.71913 -9.71548 5.60039 23.79704 -0.61825 -4.9533 2.45795 6.91776
0.00014 0.57925 -0.00031 155.652 0 -4.82501 8.09949 5.57948 -1.58861 -34.55935 3.22161 -1.03353 30.26872 -17.43525 6.36096 11.398 82.01912 1.25774 -3.43951 23.67543 11.2606 -2.56617 8.73905 -80.51009 -2.25596 0.2462 -6.19407 3.9547 -15.56986 -6.74552 -12.51041 -1.54611 -9.56388 -9.83881 5.57903 23.56639 -0.38809 -5.08711 2.46337 7.24365
0.00028 0.57923 -0.00063 155.56366 0 -4.83497 8.08406 5.50225 -1.52734 -34.27569 3.17631 -0.87101 29.94034 -17.46416 6.65494 11.54288 82.00794 1.27559 -3.49781 23.00378 11.10119 -1.9682 8.33355 -80.46355 -2.00767 -0.22381 -6.31856 4.01071 -15.62863 -6.47447 -12.58176 -1.54021 -9.40997 -9.96059 5.55797 23.33802 -0.16025 -5.21981 2.46866 7.56575
0.00043 0.57921 -0.00093 155.47952 0 -4.84423 8.06753 5.42467 -1.47011 -33.99595 3.13319 -0.71049 29.61677 -17.49505 6.94637 11.6835 81.99771 1.29319 -3.55423 22.34534 10.94251 -1.38517 7.93752 -80.41682 -1.7655 -0.68353 -6.43997 4.06562 -15.68774 -6.20975 -12.65147 -1.53456 -9.26008 -10.0776 5.53802 23.12078 0.06022 -5.34896 2.47335 7.87314
0.00055 0.57919 -0.00127 155.37115 0 -4.85743 8.05712 5.34932 -1.38706 -33.69478 3.07957 -0.5426 29.26815 -17.51403 7.25362 11.84737 81.98196 1.31207 -3.62113 21.61269 10.78061 -0.71779 7.49025 -80.37096 -1.49042 -1.1998 -6.57713 4.12651 -15.7437 -5.91231 -12.72971 -1.52772 -9.08913 -10.22014 5.51235 22.84969 0.31935 -5.49645 2.48106 8.25523
0.00072 0.57918 -0.00154 155.31548 0 -4.8621 8.03359 5.26909 -1.36167 -33.43966 3.04749 -0.38827 28.97257 -17.55916 7.52553 11.96145 81.97821 1.32826 -3.66543 21.04061 10.62525 -0.233 7.15252 -80.32339 -1.28554 -1.59456 -6.68125 4.17459 -15.80718 -5.68382 -12.78994 -1.52334 -8.9627 -10.30834 5.49868 22.6893 0.49672 -5.60535 2.48245 8.48115
0.00102 0.57922 -0.00164 155.39802 0 -4.84408 7.97334 5.17473 -1.47524 -33.30568 3.08311 -0.28744 28.82313 -17.67262 7.71715 11.94001 82.00597 1.33699 -3.64958 20.88823 10.4876 -0.2277 7.11313 -80.26849 -1.27333 -1.66399 -6.69012 4.18811 -15.8862 -5.65108 -12.79948 -1.52632 -8.96199 -10.24515 5.51992 22.87185 0.44279 -5.60366 2.46508 8.24635
0.00137 0.57928 -0.00167 155.53516 0 -4.81731 7.89983 5.07549 -1.65048 -33.21905 3.13955 -0.1976 28.72708 -17.81366 7.87024 11.86804 82.04609 1.34302 -3.61056 20.90223 10.3562 -0.41102 7.1851 -80.2121 -1.33215 -1.60898 -6.66631 4.18856 -15.97384 -5.68705 -12.79104 -1.5317 -9.00581 -10.12727 5.55297 23.16034 0.3073 -5.56368 2.4415 7.85828
0.00169 0.57933 -0.00173 155.65226 0 -4.7939 7.83269 4.97876 -1.81134 -33.11465 3.18046 -0.09168 28.60674 -17.94427 8.02976 11.8177 82.08173 1.35036 -3.58054 20.85528 10.22235 -0.52449 7.20868 -80.15823 -1.35934 -1.60429 -6.66018 4.19447 -16.06109 -5.68792 -12.79146 -1.53563 -9.02736 -10.03517 5.57948 23.37535 0.21262 -5.54393 2.42163 7.56018
0.00202 0.57938 -0.00182 155.74941 0 -4.77293 7.76431 4.88072 -1.91619 -32.99485 3.24471 -0.03106 28.4868 -18.06453 8.2355 11.77246 82.11288 1.35742 -3.55667 20.74613 10.08802 -0.57207 7.22263 -80.09731 -1.38402 -1.62577 -6.64246 4.20238 -16.13357 -5.70465 -12.78895 -1.54109 -9.05715 -9.93915 5.61093 23.69391 0.10207 -5.51254 2.39816 7.1795
0.00235 0.57943 -0.00183 155.90085 0 -4.745 7.69511 4.78437 -2.15033 -32.91785 3.26813 0.11942 28.37837 -18.21475 8.33647 11.70527 82.15591 1.36434 -3.51486 20.80647 9.95475 -0.80035 7.28347 -80.04978 -1.4305 -1.56333 -6.64066 4.20303 -16.23871 -5.7053 -12.78828 -1.54394 -9.08078 -9.83831 5.63488 23.82619 0.00526 -5.49591 2.38054 6.93046
